<?xml version="1.0" encoding="UTF-8" standalone="no"?>
<!DOCTYPE svg PUBLIC "-//W3C//DTD SVG 1.1//EN" "http://www.w3.org/Graphics/SVG/1.1/DTD/svg11.dtd">
<svg width="100%" height="100%" viewBox="0 0 24 24" version="1.1" xmlns="http://www.w3.org/2000/svg" xmlns:xlink="http://www.w3.org/1999/xlink" xml:space="preserve" xmlns:serif="http://www.serif.com/" style="fill-rule:evenodd;clip-rule:evenodd;stroke-linejoin:round;stroke-miterlimit:1.41421;">
    <g transform="matrix(1.19402e-16,1.9697,-1.14437,1.11022e-16,29.3887,-13.8618)">
        <path d="M12.48,8.321C12.617,7.928 12.864,7.687 13.13,7.687C13.396,7.687 13.643,7.928 13.78,8.321C14.93,11.622 17.318,18.471 18.511,21.894C18.656,22.31 18.66,22.828 18.521,23.25C18.382,23.673 18.122,23.934 17.84,23.934C15.495,23.934 10.765,23.934 8.42,23.934C8.138,23.934 7.878,23.672 7.739,23.25C7.6,22.828 7.604,22.309 7.749,21.893C8.942,18.47 11.329,11.622 12.48,8.321Z" style="fill:rgb(0,203,148);"/>
    </g>
</svg>
